<?xml version="1.0" encoding="utf-8"?>
<!-- Generator: Adobe Illustrator 23.0.3, SVG Export Plug-In . SVG Version: 6.00 Build 0)  -->
<svg version="1.1" id="Layer_1" xmlns="http://www.w3.org/2000/svg" xmlns:xlink="http://www.w3.org/1999/xlink" x="0px" y="0px"
	 viewBox="0 0 224.2 221.3" style="enable-background:new 0 0 224.2 221.3;" xml:space="preserve">
<style type="text/css">
	.st0{fill:#D36D75;}
	.st1{fill:#D8A55B;}
	.st2{fill:#6696AC;}
	.st3{fill:#515F6D;}
	.st4{fill:#C0BCBB;}
	.st5{fill:#A6BB75;}
	.st6{fill:#D7734B;}
	.st7{fill:#AA81AC;}
</style>
<rect x="28.6" y="32.4" class="st0" width="26.2" height="5"/>
<rect x="43.7" y="21.6" class="st0" width="36.2" height="5"/>
<rect x="117" y="21.6" class="st1" width="63.8" height="5"/>
<rect x="64.7" y="32.4" class="st2" width="83.7" height="5"/>
<rect x="89.9" y="21.6" class="st3" width="17.2" height="5"/>
<rect x="81" y="10.8" class="st2" width="29.2" height="5"/>
<rect x="61.7" y="10.8" class="st0" width="9.4" height="5"/>
<rect x="102.3" class="st4" width="22.8" height="5"/>
<rect x="158.7" y="32.4" class="st4" width="35.8" height="5"/>
<rect x="120.2" y="10.8" class="st0" width="43.1" height="5"/>
<rect x="3" y="119" class="st1" width="36.2" height="5"/>
<rect x="12.7" y="140.6" class="st5" width="42" height="5"/>
<rect x="41.9" y="86.5" class="st1" width="54.2" height="5"/>
<rect x="155.9" y="86.5" class="st6" width="24.2" height="5"/>
<rect x="115.6" y="97.3" class="st4" width="108.6" height="5"/>
<rect x="6.8" y="129.8" class="st1" width="73" height="5"/>
<rect x="117" y="129.8" class="st0" width="100.6" height="5"/>
<rect x="148.4" y="140.6" class="st3" width="64" height="5"/>
<rect x="64.7" y="140.6" class="st2" width="73.7" height="5"/>
<rect x="132" y="75.7" class="st1" width="57.2" height="5"/>
<rect x="199.2" y="75.7" class="st4" width="22.5" height="5"/>
<rect x="89.9" y="129.8" class="st4" width="17.2" height="5"/>
<rect x="66.7" y="97.3" class="st2" width="39.2" height="5"/>
<rect x="81" y="119" class="st7" width="29.2" height="5"/>
<rect x="49.2" y="119" class="st4" width="21.8" height="5"/>
<rect x="91.4" y="75.7" class="st1" width="30.6" height="5"/>
<rect x="156.9" y="54.1" class="st5" width="55.3" height="5"/>
<rect y="97.3" class="st3" width="56.4" height="5"/>
<rect x="19.3" y="43.3" class="st4" width="100.2" height="5"/>
<rect x="0.7" y="108.1" class="st0" width="193" height="5"/>
<rect x="140" y="119" class="st7" width="81.6" height="5"/>
<rect x="58.5" y="64.9" class="st1" width="108.2" height="5"/>
<rect x="65.8" y="54.1" class="st0" width="81.1" height="5"/>
<rect x="6.8" y="64.9" class="st3" width="41.6" height="5"/>
<rect x="0.7" y="86.5" class="st1" width="31.2" height="5"/>
<rect x="176.7" y="64.9" class="st4" width="19.8" height="5"/>
<rect x="190.1" y="86.5" class="st5" width="34.1" height="5"/>
<rect x="203.9" y="108.1" class="st4" width="20.3" height="5"/>
<rect x="206.5" y="64.9" class="st4" width="11.5" height="5"/>
<rect x="106.1" y="86.5" class="st4" width="39.8" height="5"/>
<rect x="120.2" y="119" class="st7" width="9.8" height="5"/>
<rect x="3" y="75.7" class="st2" width="78.4" height="5"/>
<rect x="12.7" y="54.1" class="st0" width="43.3" height="5"/>
<rect x="129.6" y="43.3" class="st5" width="38.3" height="5"/>
<rect x="178" y="43.3" class="st0" width="27.2" height="5"/>
<rect x="38" y="194.7" class="st3" width="43.5" height="5"/>
<rect x="101.9" y="194.7" class="st4" width="25.9" height="5"/>
<rect x="146" y="183.8" class="st4" width="18.1" height="5"/>
<rect x="69.4" y="183.8" class="st1" width="66.6" height="5"/>
<rect x="116.9" y="162.2" class="st5" width="79.3" height="5"/>
<rect x="31.6" y="205.5" class="st4" width="34" height="5"/>
<rect x="21.7" y="216.3" class="st5" width="12.9" height="5"/>
<rect x="19.3" y="151.4" class="st5" width="100.2" height="5"/>
<rect x="42.8" y="173" class="st5" width="140.9" height="5"/>
<rect x="65.8" y="162.2" class="st4" width="20.4" height="5"/>
<rect x="96.2" y="162.2" class="st7" width="10.7" height="5"/>
<rect x="42.8" y="183.8" class="st2" width="16.7" height="5"/>
<rect x="29.6" y="162.2" class="st4" width="26.4" height="5"/>
<rect x="129.6" y="151.4" class="st4" width="38.3" height="5"/>
<rect x="178" y="151.4" class="st4" width="27.2" height="5"/>
</svg>
