<?xml version="1.0" encoding="utf-8"?>
<!-- Generator: Adobe Illustrator 23.0.3, SVG Export Plug-In . SVG Version: 6.00 Build 0)  -->
<svg version="1.1" id="Layer_1" xmlns="http://www.w3.org/2000/svg" xmlns:xlink="http://www.w3.org/1999/xlink" x="0px" y="0px"
	 viewBox="0 0 400 400" style="enable-background:new 0 0 400 400;" xml:space="preserve">
<style type="text/css">
	.st0{fill:#AA81AC;}
	.st1{fill:#C0BCBB;}
	.st2{fill:#D7734B;}
	.st3{fill:#515F6D;}
	.st4{fill:#6696AC;}
	.st5{fill:#A6BB75;}
	.st6{fill:#D8A55B;}
	.st7{fill:#D36D75;}
</style>
<rect x="108.02" y="101.06" class="st0" width="60.89" height="5"/>
<rect x="131.33" y="90.25" class="st1" width="37.58" height="5"/>
<rect x="97.4" y="133.5" class="st2" width="42.06" height="5"/>
<rect x="97.4" y="187.57" class="st1" width="31.77" height="5"/>
<rect x="116.41" y="144.32" class="st1" width="23.04" height="5"/>
<rect x="97.4" y="155.13" class="st1" width="12.89" height="5"/>
<rect x="120.29" y="155.13" class="st3" width="19.16" height="5"/>
<rect x="109.08" y="209.2" class="st1" width="25.08" height="5"/>
<rect x="95.95" y="165.95" class="st4" width="19.22" height="5"/>
<rect x="125.17" y="165.95" class="st1" width="14.28" height="5"/>
<rect x="78.45" y="187.57" class="st1" width="9.05" height="5"/>
<rect x="86" y="176.76" class="st4" width="51.68" height="5"/>
<rect x="78.45" y="198.39" class="st5" width="34.83" height="5"/>
<rect x="78.45" y="209.2" class="st1" width="20.72" height="5"/>
<rect x="97.19" y="144.32" class="st1" width="9.27" height="5"/>
<rect x="101.02" y="111.88" class="st6" width="16.6" height="5"/>
<rect x="117.48" y="122.69" class="st5" width="25.85" height="5"/>
<rect x="98.51" y="122.69" class="st4" width="8.97" height="5"/>
<rect x="127.62" y="111.88" class="st3" width="41.3" height="5"/>
<rect x="97.54" y="241.64" class="st7" width="41.91" height="5"/>
<rect x="109.02" y="295.71" class="st3" width="59.64" height="5"/>
<rect x="116.41" y="252.46" class="st1" width="23.04" height="5"/>
<rect x="97.54" y="263.27" class="st5" width="12.75" height="5"/>
<rect x="120.29" y="263.27" class="st1" width="19.54" height="5"/>
<rect x="98.5" y="274.09" class="st3" width="20.67" height="5"/>
<rect x="129.17" y="274.09" class="st6" width="15.58" height="5"/>
<rect x="101.5" y="284.9" class="st5" width="41.28" height="5"/>
<rect x="97.4" y="252.46" class="st1" width="9.07" height="5"/>
<rect x="152.77" y="284.9" class="st5" width="15.89" height="5"/>
<rect x="136.96" y="306.53" class="st7" width="31.71" height="5"/>
<rect x="93.71" y="220.02" class="st4" width="23.91" height="5"/>
<rect x="119.02" y="230.83" class="st1" width="20.43" height="5"/>
<rect x="96.81" y="230.83" class="st1" width="12.21" height="5"/>
<rect x="127.62" y="220.02" class="st2" width="11.2" height="5"/>
<rect x="230.54" y="296.21" class="st6" width="60.89" height="5"/>
<rect x="230.54" y="307.03" class="st7" width="37.58" height="5"/>
<rect x="260.01" y="263.77" class="st3" width="42.06" height="5"/>
<rect x="270.29" y="209.7" class="st2" width="31.77" height="5"/>
<rect x="260.01" y="252.96" class="st1" width="23.04" height="5"/>
<rect x="289.17" y="242.14" class="st5" width="12.89" height="5"/>
<rect x="260.01" y="242.14" class="st0" width="19.16" height="5"/>
<rect x="265.29" y="188.07" class="st6" width="25.08" height="5"/>
<rect x="284.29" y="231.33" class="st5" width="19.22" height="5"/>
<rect x="260.01" y="231.33" class="st5" width="14.28" height="5"/>
<rect x="311.96" y="209.7" class="st5" width="9.05" height="5"/>
<rect x="261.78" y="220.52" class="st4" width="51.68" height="5"/>
<rect x="286.18" y="198.89" class="st7" width="34.83" height="5"/>
<rect x="300.29" y="188.07" class="st1" width="20.72" height="5"/>
<rect x="293" y="252.96" class="st1" width="9.27" height="5"/>
<rect x="281.84" y="285.4" class="st4" width="16.6" height="5"/>
<rect x="256.13" y="274.59" class="st1" width="25.85" height="5"/>
<rect x="291.98" y="274.59" class="st1" width="8.97" height="5"/>
<rect x="230.54" y="285.4" class="st5" width="41.3" height="5"/>
<rect x="260.01" y="155.63" class="st1" width="41.91" height="5"/>
<rect x="230.79" y="101.56" class="st6" width="59.64" height="5"/>
<rect x="260.01" y="144.82" class="st6" width="23.04" height="5"/>
<rect x="289.17" y="134" class="st2" width="12.75" height="5"/>
<rect x="259.63" y="134" class="st4" width="19.54" height="5"/>
<rect x="280.29" y="123.19" class="st4" width="20.67" height="5"/>
<rect x="254.71" y="123.19" class="st1" width="15.58" height="5"/>
<rect x="256.68" y="112.38" class="st1" width="41.28" height="5"/>
<rect x="293" y="144.82" class="st0" width="9.07" height="5"/>
<rect x="230.79" y="112.38" class="st1" width="15.89" height="5"/>
<rect x="230.79" y="90.75" class="st3" width="31.71" height="5"/>
<rect x="281.84" y="177.26" class="st2" width="23.91" height="5"/>
<rect x="260.01" y="166.45" class="st1" width="20.43" height="5"/>
<rect x="290.44" y="166.45" class="st6" width="12.21" height="5"/>
<rect x="260.64" y="177.26" class="st1" width="11.2" height="5"/>
</svg>
