<svg id="Layer_1" data-name="Layer 1" xmlns="http://www.w3.org/2000/svg" viewBox="0 0 425.2 141.73"><defs><style>.cls-1{fill:#515f6d;}</style></defs><title>HoC-logo-long_dark</title><rect class="cls-1" x="88.19" y="91.46" width="25.3" height="4.71"/><rect class="cls-1" x="62.92" y="82.89" width="34.71" height="4.71"/><rect class="cls-1" x="68.5" y="74.31" width="11.99" height="4.71"/><rect class="cls-1" x="84.77" y="74.31" width="5.56" height="4.71"/><rect class="cls-1" x="101.92" y="82.89" width="5.56" height="4.71"/><rect class="cls-1" x="111.76" y="82.89" width="18.42" height="4.71"/><rect class="cls-1" x="94.62" y="74.31" width="22.71" height="4.71"/><rect class="cls-1" x="97.63" y="65.74" width="14.13" height="4.71"/><rect class="cls-1" x="89.06" y="57.17" width="11.13" height="4.71"/><rect class="cls-1" x="104.48" y="57.17" width="17.13" height="4.71"/><rect class="cls-1" x="62.92" y="65.74" width="30.42" height="4.71"/><rect class="cls-1" x="80.49" y="48.6" width="31.28" height="4.71"/><rect class="cls-1" x="71.5" y="57.17" width="13.28" height="4.71"/><polygon class="cls-1" points="83.9 96.17 43.64 96.17 43.64 67.71 66.69 48.6 76.2 48.6 76.2 53.31 68.39 53.31 48.35 69.92 48.35 91.46 83.9 91.46 83.9 96.17"/><path class="cls-1" d="M167.23,83.47v-8.9h-9v8.9h-4.88V61.3h4.88v8.77h9V61.3h4.88V83.47Z"/><path class="cls-1" d="M186.92,83.85a11.36,11.36,0,0,1-11.75-11.4v-.06a11.79,11.79,0,0,1,23.56-.06v.06A11.46,11.46,0,0,1,186.92,83.85Zm6.71-11.46a6.73,6.73,0,0,0-6.71-7,6.63,6.63,0,0,0-6.65,6.9v.06a6.73,6.73,0,0,0,6.71,7,6.63,6.63,0,0,0,6.65-6.9Z"/><path class="cls-1" d="M211.05,83.82c-6,0-9.6-3.32-9.6-9.85V61.3h4.88V73.84c0,3.61,1.81,5.48,4.78,5.48s4.78-1.8,4.78-5.32V61.3h4.88V73.81C220.77,80.52,217,83.82,211.05,83.82Z"/><path class="cls-1" d="M232.36,83.79A14.11,14.11,0,0,1,223,80.24l2.88-3.45a10.17,10.17,0,0,0,6.62,2.69c2,0,3.2-.79,3.2-2.09v-.06c0-1.23-.76-1.87-4.47-2.82-4.46-1.14-7.35-2.38-7.35-6.78v-.06c0-4,3.23-6.68,7.76-6.68a12.83,12.83,0,0,1,8.23,2.82l-2.53,3.67a10.4,10.4,0,0,0-5.76-2.19c-1.87,0-2.85.86-2.85,1.93v.06c0,1.46,1,1.93,4.78,2.91,4.5,1.17,7,2.79,7,6.65v.06C240.5,81.32,237.14,83.79,232.36,83.79Z"/><path class="cls-1" d="M243.48,83.47V61.3H260.2v4.34H248.32v4.5h10.45v4.34H248.32v4.65h12v4.34Z"/><path class="cls-1" d="M264.47,75.64a8.23,8.23,0,0,1,8-8.08A6.08,6.08,0,0,1,279,73.86a8.25,8.25,0,0,1-8,8.06A6.07,6.07,0,0,1,264.47,75.64Zm11.37-1.69a3.34,3.34,0,0,0-3.52-3.65c-2.71,0-4.72,2.79-4.72,5.24a3.34,3.34,0,0,0,3.52,3.65C273.78,79.18,275.84,76.44,275.84,73.94Z"/><path class="cls-1" d="M282.91,70.55h-1.75l.73-2.71h1.75l.26-1.12c.78-2.92,2.58-4.28,5.24-4.28a7.14,7.14,0,0,1,2.71.47l-.7,2.63a5,5,0,0,0-1.93-.42A2.22,2.22,0,0,0,287,67.06l-.21.78h3.81l-.73,2.71h-3.75l-3,11.06h-3.16Z"/><path class="cls-1" d="M305.58,83.85a11.19,11.19,0,0,1-11.37-11.4v-.06a11.27,11.27,0,0,1,11.56-11.46,11.44,11.44,0,0,1,8.74,3.42l-3.1,3.58a8.18,8.18,0,0,0-5.67-2.5c-3.74,0-6.43,3.1-6.43,6.9v.06c0,3.8,2.63,7,6.43,7,2.53,0,4.09-1,5.83-2.6l3.1,3.14A11.33,11.33,0,0,1,305.58,83.85Z"/><path class="cls-1" d="M327.43,83.85a11.36,11.36,0,0,1-11.75-11.4v-.06a11.79,11.79,0,0,1,23.56-.06v.06A11.46,11.46,0,0,1,327.43,83.85Zm6.71-11.46a6.73,6.73,0,0,0-6.71-7,6.63,6.63,0,0,0-6.65,6.9v.06a6.74,6.74,0,0,0,6.71,7,6.63,6.63,0,0,0,6.65-6.9Z"/><path class="cls-1" d="M351,83.47h-8.65V61.3H351c7,0,11.78,4.78,11.78,11v.06C362.74,78.62,357.92,83.47,351,83.47Zm6.68-11.08A6.37,6.37,0,0,0,351,65.7h-3.77V79.07H351a6.32,6.32,0,0,0,6.68-6.62Z"/><path class="cls-1" d="M365.81,83.47V61.3h16.72v4.34H370.65v4.5H381.1v4.34H370.65v4.65h12v4.34Z"/></svg>